<?xml version="1.0" standalone="no"?>
<!DOCTYPE svg PUBLIC "-//W3C//DTD SVG 20010904//EN"
 "http://www.w3.org/TR/2001/REC-SVG-20010904/DTD/svg10.dtd">
<svg version="1.0" xmlns="http://www.w3.org/2000/svg"
 width="700.000000pt" height="700.000000pt" viewBox="0 0 700.000000 700.000000"
 preserveAspectRatio="xMidYMid meet">
<metadata>
Created by potrace 1.14, written by Peter Selinger 2001-2017
</metadata>
<g transform="translate(0.000000,700.000000) scale(0.100000,-0.100000)"
fill="#000000" stroke="none">
<path d="M2343 6268 c-16 -21 -31 -74 -62 -228 -16 -80 -34 -156 -39 -170 -18
-48 -29 -51 -193 -48 l-154 3 1 50 c1 28 5 75 9 107 10 73 2 100 -42 149 -42
47 -108 83 -190 104 -65 17 -193 20 -193 5 0 -6 21 -52 46 -103 58 -114 94
-209 94 -245 0 -58 9 -57 -347 -62 -283 -4 -328 -7 -328 -20 0 -13 44 -15 324
-18 219 -1 329 -6 338 -13 18 -16 19 -719 1 -737 -9 -9 -113 -12 -405 -12
-255 0 -393 -4 -393 -10 0 -5 1 -11 3 -12 1 0 421 -6 932 -12 676 -8 1023 -8
1270 0 187 6 341 12 343 13 1 0 2 8 2 16 0 23 -68 93 -151 155 -82 61 -131 85
-153 77 -8 -3 -42 -47 -76 -96 -33 -50 -71 -98 -84 -106 -19 -13 -53 -15 -182
-13 l-159 3 -3 364 c-1 201 2 369 6 373 5 5 163 11 352 13 221 3 347 8 354 15
7 7 4 16 -9 30 -35 33 -258 210 -267 210 -4 0 -41 -42 -81 -92 -41 -51 -81
-99 -91 -107 -12 -10 -71 -16 -209 -23 -207 -10 -291 -8 -309 10 -27 27 73
109 278 227 144 83 161 96 142 113 -24 19 -92 42 -220 72 -146 34 -142 34
-155 18z m-158 -853 l0 -370 -115 0 -115 0 -3 364 c-2 285 1 366 10 373 7 4
60 7 118 6 l105 -3 0 -370z"/>
<path d="M5659 6214 c-41 -37 -92 -80 -113 -95 l-39 -29 -509 0 c-332 0 -508
-3 -508 -10 0 -7 180 -10 519 -10 432 0 520 -2 524 -14 9 -22 -38 -81 -120
-151 -89 -76 -89 -76 -281 -45 -72 12 -156 20 -200 18 -69 -3 -77 -5 -77 -23
0 -14 26 -36 95 -77 128 -78 196 -138 211 -188 21 -69 13 -72 -190 -68 l-176
4 -140 67 c-77 37 -148 67 -157 67 -11 0 -20 -11 -24 -27 -6 -24 2 -944 12
-1313 3 -134 6 -157 21 -168 46 -33 283 56 296 111 13 54 20 306 21 737 l1
465 120 0 120 0 6 -625 c4 -420 10 -634 17 -652 11 -26 16 -28 66 -28 57 0
167 29 202 54 12 9 25 32 29 53 5 21 11 299 14 618 l6 580 135 0 135 0 3 -493
2 -493 -40 -17 c-46 -19 -48 -31 -20 -95 11 -25 25 -81 30 -124 16 -121 12
-116 85 -111 114 10 237 86 276 173 17 37 19 79 19 563 l0 523 35 20 c19 12
35 27 35 33 0 28 -261 246 -294 246 -7 0 -26 -19 -43 -42 -17 -24 -49 -62 -70
-85 l-40 -43 -76 0 c-41 0 -82 3 -91 6 -22 9 -20 36 8 88 25 48 25 48 -6 155
-12 40 -11 44 9 61 27 21 194 77 372 124 74 20 139 40 144 45 7 7 -35 56 -125
146 -74 74 -140 135 -145 135 -6 0 -44 -30 -84 -66z"/>
<path d="M3743 6164 c-3 -9 18 -61 49 -122 31 -59 72 -157 92 -219 43 -130 60
-155 114 -171 120 -36 211 11 242 127 40 152 -105 315 -342 381 -89 25 -146
26 -155 4z"/>
<path d="M2771 5657 c-14 -17 -138 -393 -143 -433 -9 -77 118 -19 327 149 33
27 87 63 119 80 33 18 61 38 63 44 4 12 -136 87 -252 136 -89 37 -101 39 -114
24z"/>
<path d="M1139 5633 c-2 -10 -3 -5 26 -143 49 -232 110 -320 222 -320 113 0
179 115 141 244 -16 54 -105 143 -178 177 -78 38 -208 63 -211 42z"/>
<path d="M3915 5166 l-86 -116 -107 0 c-109 0 -141 -8 -127 -30 6 -10 37 -11
132 -6 80 4 131 3 143 -4 19 -10 20 -23 20 -430 l0 -419 -27 -15 c-16 -7 -68
-26 -118 -41 -106 -32 -145 -51 -145 -69 0 -17 157 -336 165 -336 24 0 58 39
132 153 92 141 163 237 262 355 l61 74 0 334 c0 375 -6 346 80 360 46 7 60 25
39 50 -17 20 -306 244 -325 251 -8 3 -46 -39 -99 -111z"/>
<path d="M4907 5103 c18 -2 50 -2 70 0 21 2 7 4 -32 4 -38 0 -55 -2 -38 -4z"/>
<path d="M5508 5103 c23 -2 59 -2 80 0 20 2 1 4 -43 4 -44 0 -61 -2 -37 -4z"/>
<path d="M2579 4825 l-86 -85 -436 0 c-490 0 -454 -5 -636 81 -57 27 -112 49
-123 49 -18 0 -18 -21 -16 -592 l3 -593 85 1 c140 1 178 20 252 127 l41 57
403 0 c351 0 404 2 404 15 0 13 -56 15 -417 17 l-418 3 -3 380 c-2 348 -1 381
15 393 13 9 116 12 437 12 232 0 426 -4 432 -8 8 -5 13 -152 18 -472 3 -256 9
-475 12 -487 6 -21 12 -23 78 -23 95 0 190 16 237 41 l39 19 0 405 c0 260 4
412 10 427 6 13 27 33 46 46 29 19 33 26 23 38 -27 33 -295 235 -311 234 -2 0
-42 -38 -89 -85z"/>
<path d="M4885 4710 c3 -5 30 -10 60 -10 30 0 57 5 60 10 4 6 -18 10 -60 10
-42 0 -64 -4 -60 -10z"/>
<path d="M5480 4710 c8 -5 38 -10 65 -10 28 0 57 5 65 10 10 7 -10 10 -65 10
-55 0 -75 -3 -65 -10z"/>
<path d="M1710 4320 c0 -6 135 -10 386 -10 254 0 383 3 379 10 -4 6 -143 10
-386 10 -246 0 -379 -4 -379 -10z"/>
<path d="M4265 4190 c-4 -6 -4 -30 0 -53 26 -156 219 -308 484 -379 68 -19
119 -22 476 -28 220 -5 475 -9 566 -9 l166 -1 21 43 c63 129 122 258 122 267
0 7 -223 10 -699 10 l-698 0 -104 26 c-62 16 -126 39 -159 59 -119 71 -162 87
-175 65z"/>
<path d="M4225 3358 c-3 -7 -21 -58 -41 -113 -44 -125 -118 -292 -202 -460
-64 -129 -103 -195 -240 -412 -75 -118 -116 -193 -107 -193 25 0 140 74 235
150 63 52 144 112 180 135 38 25 138 117 243 222 163 166 177 182 177 215 0
45 47 107 154 203 42 38 76 75 76 82 0 18 -196 112 -316 153 -98 32 -152 38
-159 18z"/>
<path d="M1900 2867 c0 -362 -3 -486 -12 -495 -9 -9 -144 -12 -546 -12 -422 0
-533 -3 -530 -12 3 -7 27 -16 54 -20 155 -21 2474 -2 2497 21 6 6 -180 173
-260 231 -32 23 -33 23 -53 5 -12 -11 -46 -54 -76 -97 -30 -43 -64 -84 -77
-92 -16 -10 -100 -17 -314 -26 -160 -7 -296 -9 -302 -6 -8 5 -11 139 -11 441
l0 434 37 30 37 30 -25 10 c-28 10 -309 41 -376 41 l-43 0 0 -483z"/>
<path d="M2858 3212 c-35 -42 -76 -93 -91 -112 l-26 -35 -183 0 c-179 0 -241
-9 -207 -31 19 -11 616 -17 754 -7 61 4 110 12 110 17 0 10 -246 220 -276 237
-14 7 -30 -6 -81 -69z"/>
<path d="M5723 3079 c-32 -40 -80 -98 -106 -130 l-48 -59 -479 0 c-333 0 -487
-3 -507 -11 l-28 -12 35 -9 c19 -6 96 -8 172 -6 89 4 140 2 147 -5 8 -8 11
-333 11 -1059 0 -977 1 -1049 17 -1055 25 -10 241 14 294 32 81 28 77 12 82
360 3 171 5 315 5 320 -1 6 -3 317 -5 693 -2 469 0 688 7 702 10 19 22 20 410
20 250 0 400 4 400 10 0 20 -257 233 -322 266 -28 14 -28 14 -85 -57z"/>
<path d="M970 3035 c0 -13 24 -15 153 -15 277 0 697 13 697 22 0 4 -191 8
-425 8 -371 0 -425 -2 -425 -15z"/>
<path d="M2786 2859 c-27 -39 -62 -87 -78 -105 l-30 -34 -153 0 c-84 0 -160
-3 -169 -6 -50 -19 14 -24 309 -24 283 0 329 -2 360 -17 33 -16 37 -16 70 0
19 9 35 22 35 29 0 28 -240 228 -273 228 -16 0 -35 -20 -71 -71z"/>
<path d="M1080 2694 c0 -14 33 -15 347 -8 191 4 359 10 373 15 14 4 -143 8
-347 8 -335 1 -373 -1 -373 -15z"/>
<path d="M5661 2426 c-74 -114 -178 -196 -246 -196 -14 0 -25 -4 -25 -10 0
-15 627 -14 636 2 5 7 -18 35 -59 74 -78 72 -237 194 -253 194 -7 0 -30 -29
-53 -64z"/>
<path d="M4090 2363 c-8 -3 -18 -11 -22 -17 -4 -6 -8 -202 -8 -436 0 -318 -3
-429 -12 -438 -9 -9 -74 -12 -231 -12 -170 0 -218 -3 -215 -12 4 -10 134 -14
599 -16 327 -1 605 0 618 3 19 5 21 9 12 18 -8 8 -66 12 -194 12 l-182 0 -3
363 -2 362 27 11 c19 7 84 9 196 4 149 -6 167 -5 167 9 0 14 -17 16 -119 16
-150 0 -241 17 -446 85 -90 30 -166 55 -167 54 -2 0 -10 -3 -18 -6z"/>
<path d="M2642 2183 c-53 -77 -85 -111 -114 -118 -12 -3 -223 -5 -468 -3
l-445 3 -144 73 c-105 53 -153 72 -175 70 l-31 -3 0 -245 c0 -414 13 -1199 21
-1211 5 -8 38 -10 103 -7 99 5 185 32 213 66 10 12 14 146 18 606 l5 591 140
0 140 0 3 -236 c2 -219 1 -237 -15 -244 -10 -3 -59 -6 -110 -6 -51 1 -95 -4
-98 -9 -4 -7 135 -10 404 -10 259 0 411 4 411 10 0 5 -52 11 -122 12 l-123 3
0 240 0 240 144 3 c97 2 148 -1 157 -9 12 -9 14 -84 14 -423 0 -385 -2 -414
-20 -454 l-19 -42 -103 2 c-57 1 -109 -1 -116 -5 -26 -17 -10 -49 60 -122 61
-64 75 -87 98 -153 32 -90 39 -93 154 -68 136 31 262 109 293 183 10 26 13
134 13 522 l0 489 35 21 c52 31 46 50 -42 123 -123 102 -213 168 -228 168 -8
0 -32 -26 -53 -57z"/>
<path d="M5798 1714 c-24 -12 -70 -69 -141 -174 -43 -64 -78 -80 -174 -80 -77
0 -112 -11 -77 -24 20 -8 728 -8 748 0 27 10 18 30 -32 76 -40 35 -248 188
-287 210 -6 4 -22 0 -37 -8z"/>
</g>
</svg>
