<?xml version="1.0" encoding="iso-8859-1"?>
<!-- Generator: Adobe Illustrator 19.0.0, SVG Export Plug-In . SVG Version: 6.00 Build 0)  -->
<svg version="1.1" id="&#x56FE;&#x5C42;_1" xmlns="http://www.w3.org/2000/svg" xmlns:xlink="http://www.w3.org/1999/xlink" x="0px"
	 y="0px" viewBox="0 0 400 400" style="enable-background:new 0 0 400 400;" xml:space="preserve">
<rect id="XMLID_2_" style="fill:#E1DBC8;" width="400" height="400"/>
<path id="XMLID_5_" style="fill:#323232;" d="M192.329,127.416c-5.705,0-11.316,0.167-16.829,0.5
	c-5.515,0.334-11.124,0.498-16.829,0.498c-14.168,0-28.191-0.143-42.071-0.427c-13.882-0.286-27.905-0.428-42.071-0.428
	c-1.619,0-3.351,0.049-5.205,0.143c-1.854,0.096-3.591-0.094-5.207-0.571c-0.38,0-0.569-0.143-0.569-0.428
	c0-0.474,0.235-0.712,0.712-0.712h38.793c0.949,0,1.426-0.475,1.426-1.426V88.911c0-0.951-0.477-1.428-1.426-1.428H71.389
	c-0.761,0-1.14-0.378-1.14-1.14c0-0.759,0.38-1.14,1.14-1.14h31.376c0.474,0,0.926-0.286,1.354-0.857
	c0.428-0.571,0.642-1.092,0.642-1.569c0-1.33-0.381-2.994-1.142-4.991s-1.593-3.945-2.495-5.848
	c-0.905-1.901-1.736-3.565-2.496-4.991c-0.763-1.426-1.14-2.282-1.14-2.568c0-0.378,0.402-0.592,1.212-0.641
	c0.806-0.047,1.306-0.071,1.497-0.071c1.805,0,3.851,0.239,6.133,0.712c2.282,0.477,4.42,1.213,6.417,2.211
	c1.997,0.999,3.659,2.282,4.991,3.851c1.332,1.569,1.997,3.494,1.997,5.776c0,0.381-0.143,1.093-0.427,2.138
	c-0.286,1.048-0.524,2.093-0.714,3.139c-0.191,1.046-0.263,1.997-0.214,2.852c0.047,0.857,0.451,1.283,1.212,1.283h14.833
	c0.949,0,1.734-1.212,2.354-3.637c0.616-2.423,1.187-5.085,1.711-7.986c0.521-2.899,1.092-5.562,1.711-7.987
	c0.616-2.423,1.354-3.637,2.211-3.637h0.712c0.665,0.286,1.972,0.62,3.922,0.999c1.948,0.381,3.969,0.834,6.062,1.354
	c2.089,0.524,3.943,1.095,5.56,1.711c1.616,0.62,2.425,1.262,2.425,1.925c0,0.286-0.12,0.5-0.357,0.642
	c-0.239,0.143-0.453,0.31-0.641,0.498c-0.857,0.571-2.449,1.499-4.779,2.782c-2.331,1.283-4.706,2.662-7.131,4.136
	c-2.423,1.475-4.563,2.972-6.417,4.492c-1.854,1.522-2.782,2.759-2.782,3.708c0,0.381,0.308,0.642,0.928,0.785
	c0.618,0.141,1.354,0.237,2.211,0.284c0.855,0.05,1.663,0.05,2.423,0c0.761-0.047,1.285-0.071,1.569-0.071
	c0.951,0,2.376-0.021,4.279-0.071c1.901-0.045,3.851-0.092,5.848-0.141c1.997-0.047,3.851-0.143,5.562-0.286
	s2.946-0.357,3.708-0.642c1.426-1.52,2.78-3.137,4.063-4.848c1.285-1.711,2.59-3.374,3.922-4.991l0.857-0.428
	c0.284-0.094,1.069,0.357,2.352,1.354c1.285,0.998,2.711,2.14,4.279,3.423c1.569,1.283,3.066,2.521,4.492,3.708
	c1.428,1.191,2.376,1.974,2.853,2.354c0.19,0.191,0.357,0.334,0.5,0.427c0.141,0.097,0.212,0.239,0.212,0.428
	c0,0.477-0.239,0.714-0.712,0.714c-3.994,0-8.012,0.143-12.051,0.428c-4.042,0.284-8.059,0.427-12.052,0.427
	c-1.807,0-3.614-0.117-5.419-0.355c-1.807-0.237-3.614-0.165-5.419,0.212c-0.951,0.193-1.426,0.667-1.426,1.428v35.368
	c0,0.951,0.475,1.426,1.426,1.426h14.69c0.857,0,1.783-0.592,2.782-1.783c0.998-1.187,1.946-2.496,2.852-3.922
	c0.902-1.426,1.758-2.731,2.568-3.922c0.806-1.187,1.448-1.783,1.924-1.783c0.761,0,2.044,0.571,3.851,1.711
	c1.805,1.142,3.612,2.425,5.419,3.851c1.805,1.426,3.327,2.853,4.565,4.279c1.234,1.426,1.663,2.425,1.283,2.994L192.329,127.416z
	 M80.09,96.042c-0.381-0.475-0.265-0.761,0.355-0.857c0.618-0.094,1.022-0.143,1.213-0.143c1.997,0,4.11,0.381,6.346,1.14
	c2.234,0.763,4.3,1.809,6.205,3.139c1.899,1.332,3.47,2.923,4.706,4.777c1.234,1.854,1.854,3.922,1.854,6.205
	c0,2.472-0.738,4.54-2.211,6.203c-1.475,1.664-3.447,2.496-5.919,2.496c-2.472,0-4.42-0.879-5.846-2.639
	c-1.426-1.758-2.568-3.851-3.423-6.274c-0.857-2.425-1.497-4.942-1.925-7.559C81.017,99.915,80.564,97.753,80.09,96.042z
	 M87.791,194.588c-0.096-0.192-0.191-0.334-0.286-0.427c-0.096-0.097-0.143-0.239-0.143-0.428v-58.188
	c0-0.378,0.071-0.735,0.214-1.069c0.143-0.333,0.451-0.5,0.928-0.5c0.378,0,1.259,0.357,2.637,1.071
	c1.377,0.712,2.972,1.497,4.779,2.352c1.804,0.857,3.637,1.64,5.491,2.354c1.854,0.714,3.494,1.069,4.92,1.069h42.214l0.999-0.427
	l7.843-7.845l0.857-0.286c0.474,0.192,1.591,0.881,3.351,2.068c1.758,1.191,3.588,2.521,5.491,3.994
	c1.901,1.475,3.588,2.829,5.063,4.065c1.473,1.236,2.211,1.995,2.211,2.281c0,0.381-0.214,0.691-0.642,0.928
	c-0.428,0.239-0.926,0.524-1.497,0.855c-0.571,0.334-1.071,0.738-1.497,1.213c-0.428,0.477-0.642,1.14-0.642,1.995v39.648
	c0,1.142-0.738,2.019-2.211,2.639c-1.475,0.616-3.161,1.069-5.063,1.354c-1.903,0.286-3.78,0.475-5.634,0.571
	c-1.854,0.092-3.161,0.143-3.922,0.143c-0.475,0-0.783-0.122-0.926-0.357c-0.143-0.238-0.31-0.548-0.5-0.928
	c-0.191-0.569-0.31-1.497-0.357-2.78c-0.049-1.283-0.07-2.664-0.07-4.136c0-1.475,0-2.9,0-4.277s0-2.448,0-3.21
	c-0.097-2.66-0.193-5.277-0.286-7.843c-0.096-2.568-0.143-5.181-0.143-7.845c0-2.946,0.047-5.869,0.143-8.771
	c0.092-2.899,0.143-5.823,0.143-8.771c0-0.949-0.477-1.426-1.428-1.426h-43.068c-0.952,0-1.428,0.477-1.428,1.426v37.08
	c0,0.951,0.475,1.426,1.428,1.426h40.645c0.474,0,0.712,0.237,0.712,0.714c0,0.475-0.238,0.714-0.712,0.714h-40.076
	c-0.192,0-0.548,0.378-1.069,1.14c-0.524,0.759-1.119,1.591-1.783,2.496c-0.667,0.902-1.334,1.783-1.997,2.637
	c-0.667,0.857-1.283,1.426-1.854,1.711c-1.711,0.761-3.637,1.283-5.776,1.569c-2.14,0.286-4.161,0.428-6.06,0.428L87.791,194.588z
	 M148.545,162.499c-0.096,0.096-0.239,0.143-0.428,0.143c-0.569,0-1.925,0-4.063,0c-2.14,0-4.636,0-7.488,0
	c-2.853,0-5.896,0-9.128,0c-3.233,0-6.229,0-8.985,0c-2.759,0-5.04,0-6.845,0c-1.807,0-2.759-0.047-2.853-0.143
	c0-0.19,0.237-0.378,0.714-0.569c0.475-0.19,0.806-0.286,0.998-0.286h36.368c0.19,0,0.522,0.096,0.999,0.286
	C148.306,162.122,148.545,162.31,148.545,162.499z M121.59,124.137c0,0.951,0.475,1.426,1.426,1.426h9.413
	c0.949,0,1.426-0.475,1.426-1.426V88.911c0-0.951-0.477-1.428-1.426-1.428h-9.413c-0.951,0-1.426,0.477-1.426,1.428V124.137z
	 M182.202,102.316c-0.286,0.571-0.855,0.998-1.711,1.283c-1.332,0.667-2.566,1.309-3.708,1.925c-1.14,0.62-2.281,1.452-3.423,2.496
	c-0.763,0.667-1.854,1.569-3.28,2.709c-1.426,1.142-2.972,2.26-4.634,3.351c-1.666,1.095-3.259,2.046-4.779,2.853
	c-1.522,0.808-2.758,1.212-3.708,1.212c-0.761,0-1.14-0.333-1.14-0.998c0-0.665,0.214-1.711,0.642-3.139
	c0.427-1.426,0.902-2.946,1.426-4.563c0.521-1.616,1.045-3.16,1.569-4.634c0.522-1.473,0.926-2.59,1.212-3.351
	c0.094-0.286,0.261-0.879,0.5-1.783c0.237-0.904,0.5-1.805,0.785-2.711c0.284-0.902,0.616-1.711,0.998-2.425
	c0.38-0.712,0.714-1.069,0.998-1.069c0.475,0,1.591,0.357,3.353,1.069c1.758,0.714,3.658,1.548,5.703,2.496
	c2.044,0.952,3.945,1.878,5.705,2.78c1.758,0.905,2.874,1.548,3.351,1.925L182.202,102.316z"/>
<path id="XMLID_12_" style="fill:#323232;" d="M236.682,164.924c-1.334,1.426-2.758,3.066-4.279,4.92
	c-1.522,1.854-3.043,3.78-4.565,5.776c-1.522,1.997-2.946,3.994-4.276,5.99c-1.334,1.995-2.521,3.849-3.565,5.56
	c-0.286,0.475-0.669,1.093-1.142,1.854c-0.477,0.761-0.999,1.499-1.57,2.211c-0.571,0.714-1.163,1.354-1.783,1.925
	s-1.212,0.857-1.783,0.857c-0.191-0.381-0.738-1.452-1.64-3.21c-0.905-1.76-1.852-3.661-2.852-5.703
	c-0.999-2.046-1.877-3.898-2.639-5.562c-0.763-1.663-1.139-2.59-1.139-2.782c0-0.759,0.783-1.426,2.35-1.997
	c1.57-0.569,3.283-1.116,5.136-1.64c1.852-0.521,3.565-1.069,5.136-1.64c1.567-0.569,2.35-1.234,2.35-1.997v-41.073
	c0-1.045-0.783-1.591-2.35-1.64c-1.57-0.047-3.332,0-5.278,0.143c-1.95,0.143-3.708,0.239-5.275,0.286
	c-1.57,0.049-2.354-0.357-2.354-1.212c0-0.475,0.519-0.785,1.567-0.928c1.045-0.143,2.235-0.214,3.565-0.214
	c1.33,0,2.615,0.05,3.851,0.143c1.236,0.096,2.089,0.143,2.566,0.143c0.286,0,0.832-0.545,1.64-1.64
	c0.808-1.092,1.713-2.328,2.712-3.708c0.996-1.377,1.971-2.709,2.921-3.994c0.951-1.283,1.713-2.113,2.284-2.495l0.996,0.286
	c0.857,0.855,2.141,1.903,3.851,3.137c1.713,1.236,3.471,2.545,5.278,3.922c1.804,1.379,3.444,2.686,4.92,3.922
	c1.473,1.236,2.354,2.234,2.639,2.994c-0.097,0.477-0.501,0.783-1.212,0.926c-0.714,0.143-1.497,0.31-2.354,0.5
	c-0.857,0.192-1.619,0.428-2.284,0.714c-0.665,0.286-0.996,0.808-0.996,1.569v32.658L236.682,164.924z M229.408,95.185
	c-1.048,0-2.281-0.237-3.708-0.714c-1.428-0.474-2.521-1.14-3.28-1.995c-0.097-0.094-0.359-0.761-0.783-1.997
	c-0.428-1.234-0.905-2.615-1.428-4.136c-0.522-1.52-1.024-2.994-1.497-4.422c-0.477-1.426-0.808-2.375-0.999-2.852
	c-0.571-1.426-1.403-3.017-2.496-4.777c-1.093-1.758-1.831-3.256-2.211-4.493c-0.191-0.378-0.237-0.877-0.139-1.497
	c0.091-0.616,0.425-0.926,0.996-0.926c2.284,0,4.871,0.427,7.775,1.283c2.897,0.855,5.581,2.046,8.057,3.565
	c2.472,1.522,4.565,3.4,6.274,5.634c1.713,2.235,2.566,4.683,2.566,7.345c0,2.758-0.808,5.111-2.423,7.059
	C234.492,94.212,232.26,95.185,229.408,95.185z M325.674,192.591c-0.098,0-0.265,0.047-0.498,0.143
	c-0.24,0.094-0.407,0.143-0.501,0.143l-51.91-0.712c-2.852,0-6.205-0.548-10.056-1.64c-3.851-1.095-7.51-2.617-10.982-4.565
	c-3.471-1.95-6.417-4.3-8.84-7.059c-2.427-2.756-3.639-5.848-3.639-9.27c0-0.855,0.474-1.283,1.428-1.283
	c0.474,0,1.163,0.214,2.068,0.642c0.902,0.427,1.852,0.926,2.852,1.497c0.999,0.569,1.946,1.14,2.852,1.711
	c0.902,0.571,1.64,0.998,2.211,1.283c0.38,0.191,1.163,0.453,2.354,0.785c1.187,0.334,2.423,0.665,3.708,0.998
	c1.281,0.334,2.496,0.62,3.635,0.857c1.142,0.238,1.901,0.355,2.284,0.355h68.595c0.38,0,0.787,0.05,1.212,0.143
	c0.428,0.096,0.644,0.381,0.644,0.857c0,0.286-0.073,0.548-0.216,0.783c-0.143,0.239-0.31,0.453-0.498,0.642
	c-1.428,2.188-2.566,4.467-3.423,6.845C328.097,188.122,327.004,190.403,325.674,192.591z M328.811,76.503l-0.428,0.712
	c-0.665,0.096-1.807,0.357-3.423,0.785c-1.619,0.427-3.447,0.904-5.491,1.426c-2.044,0.524-4.136,1.118-6.274,1.783
	c-2.141,0.667-4.116,1.307-5.919,1.925c-1.807,0.62-3.28,1.212-4.422,1.783c-1.139,0.569-1.71,1.046-1.71,1.426
	c0,1.048,0.331,2.211,0.996,3.494s0.999,2.592,0.999,3.922c0,0.477-0.167,1.022-0.498,1.64c-0.334,0.62-0.693,1.236-1.069,1.854
	c-0.383,0.62-0.669,1.236-0.857,1.854c-0.191,0.62-0.143,1.069,0.143,1.354l0.999,0.428h7.984c0.286,0,0.787-0.357,1.497-1.071
	c0.714-0.712,1.448-1.544,2.211-2.495c0.763-0.949,1.497-1.877,2.211-2.782c0.714-0.902,1.163-1.497,1.354-1.783l0.857-0.427
	c0.188-0.094,1.045,0.406,2.566,1.497c1.522,1.093,3.186,2.352,4.993,3.78c1.804,1.426,3.468,2.829,4.993,4.206
	c1.518,1.381,2.423,2.354,2.709,2.925c-0.097,0.477-0.359,0.855-0.787,1.14c-0.425,0.286-0.877,0.524-1.354,0.714
	c-0.477,0.191-0.902,0.427-1.281,0.712c-0.383,0.286-0.571,0.667-0.571,1.142v51.341c0,1.903-0.595,3.614-1.783,5.134
	c-1.191,1.522-2.639,2.831-4.349,3.922c-1.713,1.093-3.565,1.925-5.564,2.495c-1.995,0.571-3.802,0.857-5.418,0.857
	c-0.763,0-1.24-0.475-1.428-1.426c-0.38-1.52-0.595-2.733-0.641-3.637c-0.049-0.904-0.122-1.783-0.216-2.639
	c-0.094-0.855-0.285-1.758-0.571-2.709c-0.282-0.951-0.853-2.234-1.71-3.851c-0.098-0.19-0.191-0.404-0.286-0.642
	c-0.094-0.235-0.143-0.449-0.143-0.641c0-0.475,0.237-0.785,0.714-0.928c0.474-0.143,0.999-0.333,1.567-0.571
	c0.571-0.235,1.093-0.545,1.57-0.926c0.474-0.38,0.714-1.045,0.714-1.997v-47.064c0-0.949-0.477-1.426-1.428-1.426h-11.695
	c-0.951,0-1.424,0.477-1.424,1.426c0,5.99,0.045,11.981,0.143,17.97c0.094,5.99,0.143,11.981,0.143,17.97
	c0,0.667-0.049,2.331-0.143,4.991c-0.098,2.664-0.192,5.491-0.286,8.487c-0.098,2.994-0.216,5.705-0.355,8.128
	c-0.143,2.425-0.265,3.733-0.359,3.922c-0.38,0.571-1.093,1.093-2.138,1.569c-1.048,0.477-2.211,0.905-3.496,1.283
	c-1.281,0.381-2.521,0.667-3.708,0.857c-1.191,0.191-2.117,0.286-2.779,0.286c-0.763,0-1.309-0.071-1.643-0.214
	c-0.334-0.143-0.735-0.5-1.212-1.071c-0.094-0.092-0.191-0.855-0.286-2.281c-0.094-1.426-0.167-3.208-0.212-5.348
	c-0.049-2.14-0.122-4.469-0.212-6.988c-0.098-2.519-0.167-4.922-0.216-7.202c-0.049-2.282-0.07-4.302-0.07-6.062
	c0-1.758,0-2.923,0-3.494c0-5.513,0.045-10.982,0.143-16.401c0.091-5.419,0.143-10.886,0.143-16.401
	c0-0.949-0.477-1.426-1.428-1.426h-10.125c-0.954,0-1.428,0.477-1.428,1.426c0,4.85,0.073,9.676,0.216,14.476
	c0.143,4.803,0.212,9.627,0.212,14.476c0,0.667-0.024,1.854-0.07,3.565c-0.052,1.711-0.098,3.733-0.143,6.062
	c-0.049,2.331-0.097,4.754-0.143,7.274c-0.049,2.519-0.122,4.848-0.216,6.988c-0.094,2.14-0.212,3.947-0.355,5.419
	c-0.143,1.475-0.265,2.307-0.359,2.495c-0.477,0.571-1.522,1.285-3.137,2.14c-1.616,0.857-3.329,1.593-5.132,2.211
	c-1.807,0.62-3.471,0.951-4.993,0.998c-1.522,0.05-2.423-0.449-2.709-1.497c-0.191-0.569-0.265-1.163-0.216-1.783
	c0.049-0.616,0.073-1.212,0.073-1.783c0-9.128-0.122-18.184-0.355-27.169c-0.24-8.985-0.359-18.039-0.359-27.167V95.471
	c0-0.286,0.094-0.618,0.286-0.999c0.188-0.378,0.474-0.569,0.857-0.569c0.571,0,1.661,0.357,3.28,1.069
	c1.616,0.714,3.325,1.522,5.132,2.425s3.517,1.711,5.136,2.423c1.616,0.714,2.709,1.071,3.28,1.071h16.26
	c0.853,0,1.281-0.475,1.281-1.426c0-2.091-0.857-3.922-2.566-5.491c-1.713-1.569-3.59-2.972-5.634-4.208
	c-2.047-1.234-3.921-2.329-5.634-3.28c-1.71-0.949-2.566-1.901-2.566-2.852c0-0.286,0.237-0.5,0.714-0.642
	c0.474-0.143,1.02-0.237,1.64-0.286c0.616-0.047,1.233-0.047,1.852,0c0.616,0.049,1.02,0.071,1.212,0.071
	c3.137,0,6.274,0.334,9.415,0.998c3.137,0.667,6.274,0.999,9.411,0.999c0.38,0,1.163-0.451,2.354-1.354
	c1.187-0.904,2.399-1.948,3.635-3.139c1.236-1.187,2.354-2.328,3.353-3.423c0.999-1.092,1.497-1.83,1.497-2.209
	c0-0.951-0.334-1.428-0.999-1.428h-51.625c-0.477,0-0.714-0.235-0.714-0.712c0-0.475,0.237-0.714,0.714-0.714h51.197
	c0.477,0,1.306-0.5,2.496-1.497c1.187-0.998,2.423-2.068,3.708-3.209c1.285-1.142,2.472-2.211,3.565-3.208
	c1.093-0.999,1.783-1.499,2.068-1.499c0.286,0,1.093,0.62,2.423,1.854c1.33,1.238,2.782,2.639,4.352,4.208
	c1.567,1.569,3.04,3.09,4.418,4.563c1.379,1.476,2.305,2.402,2.782,2.782L328.811,76.503z M271.337,121.711h5.707l0.425,0.428
	l-0.425,0.571h-5.707l-0.571-0.571L271.337,121.711z M271.337,141.678h5.707l0.425,0.428l-0.425,0.569h-5.707l-0.571-0.569
	L271.337,141.678z M300.859,122.282l-0.285-0.428c0.094-0.094,0.547-0.143,1.354-0.143c0.808,0,1.689,0,2.639,0
	c0.947,0,1.804,0,2.566,0c0.759,0,1.236,0.049,1.428,0.143l-0.285,0.428l-0.999,0.428h-5.418L300.859,122.282z M300.859,142.249
	l-0.285-0.428c0.094-0.094,0.547-0.143,1.354-0.143c0.808,0,1.689,0,2.639,0c0.947,0,1.804,0,2.566,0
	c0.759,0,1.236,0.049,1.428,0.143l-0.285,0.428l-0.999,0.427h-5.418L300.859,142.249z"/>
<path id="XMLID_4_" style="fill:#900000;" d="M193.326,262.899c-9.603,0.477-19.136,0.787-28.596,0.926
	c-9.462,0.143-18.992,0.216-28.594,0.216c-1.236,0-3.851,0-7.845,0c-3.992,0-8.628,0-13.905,0s-10.816,0-16.614,0
	c-5.801,0-11.173,0-16.116,0c-4.946,0-9.034-0.049-12.265-0.143c-3.235-0.094-4.946-0.188-5.136-0.286
	c-0.284-0.188-0.522-0.498-0.712-0.926c-0.192-0.428,0.094-0.644,0.855-0.644h52.912c0.949,0,1.426-0.474,1.426-1.424v-47.635
	c0-0.947,0.474-1.424,1.426-1.424c1.997,0,3.969,0.118,5.919,0.355c1.946,0.24,3.922,0.453,5.917,0.641
	c1.332,0.191,2.686,0.31,4.065,0.359c1.377,0.049,2.731,0.261,4.065,0.641c0.19,0.097,0.428,0.191,0.712,0.286
	c0.286,0.097,0.428,0.237,0.428,0.428s-0.191,0.404-0.569,0.641c-0.381,0.24-0.785,0.526-1.213,0.857
	c-0.428,0.334-0.834,0.665-1.212,0.999c-0.381,0.334-0.571,0.689-0.571,1.069v43.213c0,0.571,0.38,0.881,1.142,0.926
	c0.759,0.049,1.33,0.07,1.711,0.07c1.804,0,3.565-0.045,5.277-0.139c1.711-0.094,3.47-0.191,5.277-0.286l18.253-0.857
	c1.711-1.616,3.16-3.374,4.351-5.278c1.187-1.901,2.589-3.659,4.208-5.275l0.712-0.286c0.571,0.191,1.52,0.808,2.853,1.852
	c1.33,1.048,2.73,2.211,4.206,3.496c1.476,1.285,2.925,2.545,4.352,3.778c1.428,1.24,2.563,2.141,3.419,2.712l0.286,0.71
	L193.326,262.899z M71.388,228.388c-0.191-0.474-0.096-0.857,0.286-1.142c0.38-0.286,0.714-0.428,0.999-0.428h40.931
	c0.569,0,1.14,0.286,1.711,0.857c-0.857,0.191-1.736,0.265-2.639,0.216c-0.904-0.049-1.783-0.073-2.637-0.073l-10.27,0.286
	c-4.659,0.191-9.317,0.334-13.976,0.428s-9.319,0.143-13.976,0.143L71.388,228.388z M77.093,245.525
	c-0.192-0.442-0.096-0.794,0.286-1.055c0.38-0.265,0.714-0.393,0.998-0.393h35.227c0.569,0,1.14,0.237,1.711,0.71
	c-0.571,0.097-1.405,0.167-2.496,0.216c-1.093,0.049-2.211,0.07-3.351,0.07s-2.235,0.024-3.28,0.073
	c-1.048,0.049-1.903,0.07-2.568,0.07c-4.373,0.097-8.724,0.216-13.048,0.359c-4.328,0.143-8.678,0.212-13.05,0.212L77.093,245.525z
	 M159.525,268.035c0.38,0.094,1.377,0.738,2.994,1.925c1.616,1.191,3.327,2.496,5.134,3.921c1.805,1.428,3.445,2.782,4.922,4.067
	c1.473,1.281,2.303,2.068,2.495,2.354c0.286,0.665,0.261,1.163-0.071,1.497c-0.334,0.334-0.761,0.641-1.283,0.926
	c-0.524,0.286-1.024,0.571-1.497,0.857c-0.477,0.286-0.714,0.71-0.714,1.281v47.492c0,2.089-0.783,3.969-2.352,5.634
	c-1.57,1.661-3.449,3.068-5.634,4.206c-2.188,1.142-4.493,1.999-6.917,2.57c-2.425,0.568-4.493,0.853-6.205,0.853
	c-0.477,0-0.783-0.118-0.926-0.355c-0.143-0.24-0.31-0.55-0.5-0.926c-0.477-1.24-0.857-2.451-1.14-3.639
	c-0.286-1.191-0.81-2.354-1.57-3.492c-0.38-0.571-0.975-1.24-1.783-1.999c-0.808-0.763-1.593-1.546-2.352-2.354
	c-0.763-0.804-1.426-1.591-1.997-2.35c-0.571-0.763-0.857-1.522-0.857-2.284c0-0.571,0.547-0.926,1.64-1.069
	s2.305-0.188,3.637-0.143c1.332,0.049,2.662,0.122,3.994,0.212c1.33,0.097,2.234,0,2.711-0.282c0.378-0.571,0.759-1.358,1.14-2.354
	c0.38-0.999,0.571-1.877,0.571-2.639V281.44c0-0.947-0.477-1.424-1.428-1.424h-13.405c-0.952,0-1.426,0.477-1.426,1.424v21.963
	c0,0.951,0.474,1.428,1.426,1.428c0.571,0,1.401,0,2.496,0c1.092,0,2.256,0,3.494,0c1.234,0,2.352,0.024,3.351,0.07
	c0.998,0.049,1.687,0.122,2.068,0.216l0.284,0.428c-0.284,0.094-0.879,0.139-1.783,0.139s-1.878,0-2.923,0c-1.048,0-2.046,0-2.994,0
	c-0.952,0-1.619,0-1.997,0h-32.231l-0.143-0.139v-0.286l0.998-0.428c0.38,0,1.165,0.049,2.354,0.143
	c1.187,0.094,2.425,0.143,3.708,0.143s2.401-0.118,3.351-0.359c0.949-0.237,1.426-0.689,1.426-1.354V281.44
	c0-0.947-0.477-1.424-1.426-1.424h-12.265c-0.952,0-1.426,0.477-1.426,1.424v57.617c0,1.33-0.595,2.354-1.783,3.067
	c-1.191,0.714-2.592,1.281-4.208,1.71c-1.617,0.428-3.257,0.689-4.92,0.787c-1.664,0.091-2.923,0.143-3.78,0.143
	c-0.763,0-1.26-0.028-1.497-0.073c-0.239-0.049-0.548-0.453-0.928-1.212c-0.284-0.763-0.38-1.905-0.284-3.423
	c0.092-1.522,0.143-2.709,0.143-3.565c0-10.933-0.143-21.866-0.428-32.802c-0.286-10.933-0.428-21.866-0.428-32.802
	c0-0.857,0.475-1.285,1.426-1.285c1.426,0,2.946,0.407,4.565,1.215c1.616,0.808,3.256,1.664,4.92,2.566
	c1.663,0.905,3.28,1.762,4.848,2.566c1.569,0.811,3.066,1.212,4.493,1.212h43.497c1.142,0,2.115-0.4,2.925-1.212
	c0.806-0.804,1.569-1.734,2.281-2.778c0.714-1.048,1.401-2.072,2.068-3.068C158.05,269.104,158.762,268.415,159.525,268.035z
	 M185.764,227.817c-2.758,0-5.56,0.143-8.412,0.428c-2.852,0.286-5.658,0.428-8.414,0.428c-0.667,0-1.762,0-3.28,0
	c-1.523,0-3.259-0.024-5.207-0.073c-1.95-0.045-3.992-0.094-6.132-0.143c-2.14-0.045-4.136-0.118-5.99-0.212
	c-1.854-0.094-3.447-0.188-4.777-0.286c-1.334-0.094-2.14-0.237-2.425-0.428c0.286-0.665,1.33-1.09,3.139-1.281
	c1.804-0.192,3.825-0.286,6.06-0.286c2.234,0,4.371,0.07,6.419,0.212c2.042,0.143,3.444,0.212,4.206,0.212l0.999-0.425
	c0.284-0.38,0.877-1.163,1.783-2.354c0.902-1.187,1.875-2.427,2.923-3.708c1.045-1.285,1.997-2.448,2.852-3.496
	c0.857-1.045,1.377-1.567,1.569-1.567c0.286,0,1.165,0.571,2.639,1.71c1.473,1.142,3.088,2.451,4.848,3.924
	c1.758,1.473,3.398,2.876,4.923,4.206c1.518,1.334,2.423,2.187,2.709,2.566L185.764,227.817z M158.099,243.648
	c0.474,0,1.14-0.522,1.997-1.57c0.855-1.045,1.732-2.211,2.637-3.492c0.904-1.285,1.734-2.496,2.496-3.639
	c0.759-1.142,1.33-1.804,1.711-1.995c0.474-0.191,0.83-0.237,1.069-0.143c0.237,0.094,0.547,0.237,0.928,0.428
	c0.378,0.192,1.283,0.853,2.709,1.995c1.426,1.142,2.874,2.354,4.351,3.635c1.473,1.285,2.803,2.514,3.994,3.684
	c1.187,1.17,1.783,1.887,1.783,2.148c0,0.439-0.477,0.874-1.428,1.299c-0.951,0.428-1.617,0.693-1.997,0.787
	c-0.665,0.094-1.332-0.118-1.995-0.644c-0.667-0.519-1.381-0.783-2.14-0.783h-32.374c-0.381,0-0.62-0.125-0.714-0.386
	c0.094-0.167,0.214-0.317,0.357-0.446c0.143-0.129,0.308-0.279,0.5-0.449l0.998-0.428H158.099z"/>
<path id="XMLID_27_" style="fill:#900000;" d="M205.736,304.761l-0.286-0.428l0.286-0.714c0.282-0.094,1.448-0.167,3.492-0.216
	c2.044-0.045,4.3-0.07,6.776-0.07c2.469,0,4.822,0,7.058,0c2.232,0,3.733,0,4.492,0c0.951,0,1.428-0.474,1.428-1.428v-37.008
	c0-1.045,0.143-1.831,0.428-2.354s1.045-0.783,2.281-0.783c0.665,0,1.379,0.143,2.141,0.425c5.038,1.905,9.815,3.496,14.331,4.781
	c4.516,1.281,9.484,1.925,14.902,1.925c0.191,0,0.62-0.024,1.285-0.073c0.665-0.045,1.33-0.07,1.999-0.07
	c0.662,0,1.257,0.024,1.783,0.07c0.519,0.049,0.783,0.216,0.783,0.498c0,0.477-0.265,0.763-0.783,0.857
	c-0.526,0.098-0.93,0.143-1.215,0.143c-0.665,0.098-1.974,0.049-3.921-0.143c-1.95-0.188-3.973-0.331-6.062-0.428
	c-2.093-0.094-3.945-0.045-5.56,0.143c-1.619,0.191-2.427,0.714-2.427,1.57v30.734c0,0.954,0.477,1.428,1.428,1.428
	c0.759,0,2.089-0.049,3.994-0.143c1.901-0.094,3.872-0.164,5.919-0.216c2.044-0.045,3.896-0.021,5.56,0.073
	c1.664,0.094,2.684,0.38,3.068,0.857c-0.192,0.285-0.62,0.522-1.285,0.71c-0.665,0.195-1.191,0.285-1.567,0.285h-59.33
	L205.736,304.761z M207.16,271.029c0.191-0.665,0.857-1.946,1.999-3.851c1.139-1.901,2.399-3.945,3.778-6.132s2.733-4.3,4.063-6.347
	c1.33-2.044,2.284-3.541,2.855-4.492c2.469-4.279,4.728-8.558,6.772-12.837c2.044-4.276,4.015-8.649,5.919-13.12
	c0.665-1.518,1.26-3.015,1.783-4.492c0.522-1.473,1.069-2.97,1.64-4.492c0.188-0.665,0.404-1.358,0.641-2.068
	c0.237-0.714,0.501-1.354,0.787-1.925c0.376-0.571,0.947-0.857,1.71-0.857c0.759,0,2.375,0.404,4.85,1.212
	c2.472,0.808,5.014,1.762,7.629,2.852c2.615,1.097,4.969,2.166,7.061,3.21c2.089,1.048,3.137,1.852,3.137,2.423
	c0,0.383-0.644,1.093-1.925,2.141c-1.285,1.045-2.664,2.26-4.136,3.635c-1.476,1.379-2.852,2.852-4.136,4.422
	c-1.281,1.567-1.925,3.019-1.925,4.349c0,0.383,0,0.808,0,1.285c0,0.477-0.143,0.857-0.428,1.139l-17.399,17.259
	c-0.857,0.853-1.831,1.567-2.921,2.138c-1.097,0.571-2.166,1.236-3.21,1.995c-3.043,2.284-5.943,4.613-8.701,6.991
	c-2.758,2.375-5.895,4.324-9.411,5.846L207.16,271.029z M292.729,311.962v27.952c0,1.233-0.808,2.187-2.423,2.852
	c-1.619,0.665-3.471,1.163-5.564,1.497c-2.093,0.334-4.161,0.547-6.201,0.641c-2.047,0.094-3.496,0.143-4.352,0.143
	c-0.951,0-1.424-0.477-1.424-1.424V238.227c0-0.947-0.477-1.424-1.428-1.424c-0.665,0-1.877,0.024-3.635,0.07
	c-1.762,0.049-3.59,0.073-5.491,0.073c-1.905,0-3.639-0.024-5.205-0.073c-1.57-0.045-2.545-0.164-2.925-0.355
	c0.188-0.286,0.759-0.62,1.71-0.999c0.951-0.38,1.616-0.571,1.999-0.571h47.635l0.996-0.428c0.38-0.38,1.093-1.257,2.141-2.639
	c1.045-1.375,2.138-2.803,3.28-4.276c1.139-1.473,2.211-2.782,3.207-3.924c0.999-1.139,1.591-1.71,1.783-1.71
	c0.38,0,1.072,0.334,2.068,0.996c0.999,0.669,2.162,1.501,3.496,2.496c1.33,0.999,2.709,2.093,4.136,3.28
	c1.424,1.191,2.73,2.308,3.921,3.353c1.187,1.048,2.187,1.95,2.994,2.709c0.808,0.763,1.212,1.191,1.212,1.285
	c0,0.477-0.191,0.714-0.568,0.714h-39.79c-0.954,0-1.428,0.477-1.428,1.424c0,11.222-0.024,22.367-0.07,33.443
	c-0.049,11.079-0.073,22.228-0.073,33.446 M296.437,269.034l0.428-0.428c1.71,0.191,3.353-0.143,4.92-0.999
	c1.57-0.857,3.019-1.946,4.349-3.28c1.33-1.33,2.521-2.782,3.565-4.349c1.048-1.57,1.95-3.019,2.712-4.352l0.71-0.286
	c0.477,0.097,1.546,0.763,3.21,1.999c1.661,1.236,3.423,2.59,5.278,4.063c1.852,1.476,3.565,2.925,5.132,4.349
	c1.57,1.428,2.496,2.378,2.782,2.855l-0.286,0.568l-0.999,0.428h-31.232L296.437,269.034z M319.685,290.214
	c0.662,0.568,1.898,1.473,3.708,2.709c1.804,1.236,3.68,2.566,5.63,3.994c1.95,1.424,3.684,2.778,5.205,4.063
	c1.522,1.285,2.284,2.211,2.284,2.782c0,0.477-0.407,0.832-1.212,1.069c-0.811,0.237-1.407,0.355-1.783,0.355h-34.23
	c-0.191,0-0.689-0.118-1.497-0.355c-0.808-0.237-1.212-0.449-1.212-0.641c0-0.286,0.428-0.453,1.285-0.501
	c0.853-0.045,1.375-0.07,1.567-0.07c1.428,0,2.876,0.024,4.352,0.07c1.473,0.049,2.827-0.404,4.063-1.354
	c0.951-0.665,1.828-1.64,2.639-2.921c0.804-1.285,1.64-2.57,2.493-3.851c0.857-1.285,1.758-2.448,2.712-3.496
	c0.947-1.045,1.995-1.758,3.137-2.138L319.685,290.214z"/>
</svg>
