<?xml version="1.0" encoding="iso-8859-1"?>
<!-- Generator: Adobe Illustrator 19.0.0, SVG Export Plug-In . SVG Version: 6.00 Build 0)  -->
<svg version="1.1" id="&#x56FE;&#x5C42;_1" xmlns="http://www.w3.org/2000/svg" xmlns:xlink="http://www.w3.org/1999/xlink" x="0px"
	 y="0px" viewBox="0 0 100 100" style="enable-background:new 0 0 100 100;" xml:space="preserve">
<rect id="XMLID_2_" style="fill:#E1DBC8;" width="100" height="100"/>
<path id="XMLID_5_" style="fill:#323232;" d="M47.72,28.52c-1.6,0-3.174,0.047-4.72,0.14c-1.547,0.094-3.12,0.14-4.72,0.14
	c-3.974,0-7.907-0.04-11.8-0.12c-3.894-0.08-7.827-0.12-11.8-0.12c-0.454,0-0.94,0.014-1.46,0.04c-0.52,0.027-1.007-0.026-1.46-0.16
	c-0.106,0-0.16-0.04-0.16-0.12c0-0.133,0.066-0.2,0.2-0.2h10.88c0.266,0,0.4-0.133,0.4-0.4v-10c0-0.267-0.134-0.4-0.4-0.4H13.8
	c-0.213,0-0.32-0.106-0.32-0.32c0-0.213,0.106-0.32,0.32-0.32h8.8c0.133,0,0.26-0.08,0.38-0.24s0.18-0.306,0.18-0.44
	c0-0.373-0.107-0.84-0.32-1.4s-0.447-1.106-0.7-1.64c-0.254-0.533-0.487-1-0.7-1.4c-0.214-0.4-0.32-0.64-0.32-0.72
	c0-0.106,0.113-0.166,0.34-0.18c0.226-0.013,0.366-0.02,0.42-0.02c0.506,0,1.08,0.067,1.72,0.2c0.64,0.134,1.24,0.34,1.8,0.62
	c0.56,0.28,1.026,0.64,1.4,1.08s0.56,0.98,0.56,1.62c0,0.107-0.04,0.307-0.12,0.6c-0.08,0.294-0.147,0.587-0.2,0.88
	c-0.054,0.293-0.074,0.56-0.06,0.8c0.013,0.24,0.126,0.36,0.34,0.36h4.16c0.266,0,0.486-0.34,0.66-1.02
	c0.173-0.68,0.333-1.426,0.48-2.24c0.146-0.813,0.306-1.56,0.48-2.24c0.173-0.68,0.38-1.02,0.62-1.02h0.2
	c0.187,0.08,0.553,0.174,1.1,0.28c0.546,0.107,1.113,0.234,1.7,0.38c0.586,0.147,1.106,0.307,1.56,0.48
	c0.453,0.174,0.68,0.354,0.68,0.54c0,0.08-0.034,0.14-0.1,0.18c-0.067,0.04-0.127,0.087-0.18,0.14c-0.24,0.16-0.687,0.42-1.34,0.78
	c-0.654,0.36-1.32,0.747-2,1.16c-0.68,0.414-1.28,0.833-1.8,1.26c-0.52,0.427-0.78,0.774-0.78,1.04c0,0.107,0.086,0.18,0.26,0.22
	c0.173,0.04,0.38,0.066,0.62,0.08c0.24,0.014,0.466,0.014,0.68,0c0.213-0.013,0.36-0.02,0.44-0.02c0.267,0,0.667-0.006,1.2-0.02
	c0.533-0.013,1.08-0.026,1.64-0.04c0.56-0.013,1.08-0.04,1.56-0.08s0.826-0.1,1.04-0.18c0.4-0.426,0.78-0.88,1.14-1.36
	c0.36-0.48,0.727-0.946,1.1-1.4l0.24-0.12c0.08-0.026,0.3,0.1,0.66,0.38c0.36,0.28,0.76,0.6,1.2,0.96s0.86,0.707,1.26,1.04
	c0.4,0.334,0.667,0.554,0.8,0.66c0.053,0.054,0.1,0.094,0.14,0.12c0.04,0.027,0.06,0.067,0.06,0.12c0,0.134-0.067,0.2-0.2,0.2
	c-1.12,0-2.247,0.04-3.38,0.12c-1.134,0.08-2.26,0.12-3.38,0.12c-0.507,0-1.014-0.033-1.52-0.1c-0.507-0.066-1.014-0.046-1.52,0.06
	c-0.267,0.054-0.4,0.187-0.4,0.4v9.92c0,0.267,0.133,0.4,0.4,0.4h4.12c0.24,0,0.5-0.166,0.78-0.5c0.28-0.333,0.546-0.7,0.8-1.1
	c0.253-0.4,0.493-0.766,0.72-1.1c0.226-0.333,0.406-0.5,0.54-0.5c0.213,0,0.573,0.16,1.08,0.48c0.506,0.32,1.013,0.68,1.52,1.08
	c0.506,0.4,0.933,0.8,1.28,1.2c0.346,0.4,0.466,0.68,0.36,0.84L47.72,28.52z M16.24,19.72c-0.107-0.133-0.074-0.213,0.1-0.24
	c0.173-0.026,0.287-0.04,0.34-0.04c0.56,0,1.153,0.107,1.78,0.32c0.626,0.214,1.206,0.507,1.74,0.88
	c0.533,0.374,0.973,0.82,1.32,1.34c0.346,0.52,0.52,1.1,0.52,1.74c0,0.693-0.207,1.273-0.62,1.74c-0.414,0.467-0.967,0.7-1.66,0.7
	s-1.24-0.247-1.64-0.74c-0.4-0.493-0.72-1.08-0.96-1.76c-0.24-0.68-0.42-1.386-0.54-2.12C16.5,20.807,16.373,20.2,16.24,19.72z
	 M18.4,47.36c-0.027-0.054-0.054-0.094-0.08-0.12c-0.027-0.027-0.04-0.067-0.04-0.12V30.8c0-0.106,0.02-0.206,0.06-0.3
	c0.04-0.093,0.126-0.14,0.26-0.14c0.106,0,0.353,0.1,0.74,0.3c0.386,0.2,0.833,0.42,1.34,0.66c0.506,0.24,1.02,0.46,1.54,0.66
	s0.98,0.3,1.38,0.3h11.84l0.28-0.12l2.2-2.2l0.24-0.08c0.133,0.054,0.446,0.247,0.94,0.58c0.493,0.334,1.006,0.707,1.54,1.12
	c0.533,0.414,1.006,0.793,1.42,1.14c0.413,0.347,0.62,0.56,0.62,0.64c0,0.107-0.06,0.194-0.18,0.26
	c-0.12,0.067-0.26,0.147-0.42,0.24c-0.16,0.094-0.3,0.207-0.42,0.34c-0.12,0.134-0.18,0.32-0.18,0.56v11.12
	c0,0.32-0.207,0.566-0.62,0.74c-0.414,0.173-0.887,0.3-1.42,0.38c-0.534,0.08-1.06,0.133-1.58,0.16c-0.52,0.026-0.887,0.04-1.1,0.04
	c-0.133,0-0.22-0.034-0.26-0.1c-0.04-0.067-0.087-0.154-0.14-0.26c-0.054-0.16-0.087-0.42-0.1-0.78
	c-0.014-0.36-0.02-0.747-0.02-1.16c0-0.414,0-0.813,0-1.2s0-0.687,0-0.9c-0.027-0.746-0.054-1.48-0.08-2.2
	c-0.027-0.72-0.04-1.453-0.04-2.2c0-0.826,0.013-1.646,0.04-2.46c0.026-0.813,0.04-1.633,0.04-2.46c0-0.266-0.134-0.4-0.4-0.4H23.72
	c-0.267,0-0.4,0.134-0.4,0.4v10.4c0,0.267,0.133,0.4,0.4,0.4h11.4c0.133,0,0.2,0.066,0.2,0.2c0,0.133-0.067,0.2-0.2,0.2H23.88
	c-0.054,0-0.154,0.106-0.3,0.32c-0.147,0.213-0.314,0.446-0.5,0.7c-0.187,0.253-0.374,0.5-0.56,0.74c-0.187,0.24-0.36,0.4-0.52,0.48
	c-0.48,0.213-1.02,0.36-1.62,0.44s-1.167,0.12-1.7,0.12L18.4,47.36z M35.44,38.36c-0.027,0.027-0.067,0.04-0.12,0.04
	c-0.16,0-0.54,0-1.14,0c-0.6,0-1.3,0-2.1,0c-0.8,0-1.654,0-2.56,0c-0.907,0-1.747,0-2.52,0c-0.774,0-1.414,0-1.92,0
	c-0.507,0-0.774-0.013-0.8-0.04c0-0.053,0.066-0.106,0.2-0.16c0.133-0.053,0.226-0.08,0.28-0.08h10.2c0.053,0,0.146,0.027,0.28,0.08
	C35.373,38.254,35.44,38.307,35.44,38.36z M27.88,27.6c0,0.267,0.133,0.4,0.4,0.4h2.64c0.266,0,0.4-0.133,0.4-0.4v-9.88
	c0-0.267-0.134-0.4-0.4-0.4h-2.64c-0.267,0-0.4,0.134-0.4,0.4V27.6z M44.88,21.48c-0.08,0.16-0.24,0.28-0.48,0.36
	c-0.374,0.187-0.72,0.367-1.04,0.54c-0.32,0.174-0.64,0.407-0.96,0.7c-0.214,0.187-0.52,0.44-0.92,0.76
	c-0.4,0.32-0.833,0.634-1.3,0.94c-0.467,0.307-0.914,0.574-1.34,0.8c-0.427,0.227-0.773,0.34-1.04,0.34
	c-0.213,0-0.32-0.093-0.32-0.28s0.06-0.48,0.18-0.88c0.12-0.4,0.253-0.826,0.4-1.28c0.146-0.453,0.293-0.886,0.44-1.3
	c0.146-0.413,0.26-0.727,0.34-0.94c0.026-0.08,0.073-0.247,0.14-0.5c0.066-0.253,0.14-0.506,0.22-0.76
	c0.08-0.253,0.173-0.48,0.28-0.68c0.106-0.2,0.2-0.3,0.28-0.3c0.133,0,0.446,0.1,0.94,0.3c0.493,0.2,1.026,0.434,1.6,0.7
	c0.573,0.267,1.106,0.527,1.6,0.78c0.493,0.254,0.806,0.434,0.94,0.54L44.88,21.48z"/>
<path id="XMLID_12_" style="fill:#323232;" d="M60.16,39.04c-0.374,0.4-0.773,0.86-1.2,1.38s-0.854,1.06-1.28,1.62
	s-0.826,1.12-1.199,1.68c-0.374,0.56-0.707,1.08-1,1.56c-0.08,0.133-0.188,0.307-0.32,0.52c-0.134,0.213-0.28,0.42-0.44,0.62
	c-0.16,0.2-0.326,0.38-0.5,0.54s-0.34,0.24-0.5,0.24c-0.054-0.107-0.207-0.407-0.46-0.9c-0.254-0.494-0.52-1.027-0.8-1.6
	c-0.28-0.574-0.526-1.093-0.74-1.56c-0.214-0.466-0.319-0.727-0.319-0.78c0-0.213,0.22-0.4,0.659-0.56
	c0.44-0.16,0.921-0.313,1.44-0.46c0.52-0.146,1-0.3,1.44-0.46c0.439-0.16,0.659-0.346,0.659-0.56V28.8
	c0-0.293-0.22-0.446-0.659-0.46c-0.44-0.013-0.935,0-1.48,0.04c-0.547,0.04-1.04,0.067-1.479,0.08c-0.44,0.014-0.66-0.1-0.66-0.34
	c0-0.133,0.146-0.22,0.439-0.26c0.293-0.04,0.627-0.06,1-0.06s0.733,0.014,1.08,0.04c0.347,0.027,0.586,0.04,0.72,0.04
	c0.08,0,0.233-0.153,0.46-0.46c0.227-0.306,0.48-0.653,0.761-1.04c0.279-0.386,0.553-0.76,0.819-1.12
	c0.267-0.36,0.48-0.593,0.641-0.7l0.279,0.08c0.24,0.24,0.601,0.534,1.08,0.88c0.48,0.347,0.974,0.714,1.48,1.1
	c0.506,0.387,0.966,0.753,1.38,1.1c0.413,0.347,0.66,0.626,0.74,0.84c-0.027,0.134-0.141,0.22-0.34,0.26
	c-0.2,0.04-0.42,0.087-0.66,0.14c-0.24,0.054-0.454,0.12-0.641,0.2s-0.279,0.227-0.279,0.44v9.16L60.16,39.04z M58.12,19.48
	c-0.294,0-0.64-0.066-1.04-0.2c-0.4-0.133-0.707-0.32-0.92-0.56c-0.027-0.026-0.101-0.213-0.22-0.56
	c-0.12-0.346-0.254-0.733-0.4-1.16c-0.146-0.426-0.287-0.84-0.42-1.24c-0.134-0.4-0.227-0.666-0.28-0.8
	c-0.16-0.4-0.394-0.846-0.7-1.34c-0.307-0.493-0.514-0.913-0.62-1.26c-0.054-0.106-0.066-0.246-0.039-0.42
	c0.025-0.173,0.119-0.26,0.279-0.26c0.641,0,1.366,0.12,2.181,0.36c0.813,0.24,1.565,0.574,2.26,1c0.693,0.427,1.28,0.954,1.76,1.58
	c0.48,0.627,0.72,1.313,0.72,2.06c0,0.773-0.227,1.434-0.68,1.98C59.546,19.207,58.92,19.48,58.12,19.48z M85.12,46.8
	c-0.027,0-0.074,0.013-0.14,0.04c-0.067,0.026-0.114,0.04-0.141,0.04l-14.56-0.2c-0.8,0-1.74-0.154-2.82-0.46
	c-1.08-0.307-2.106-0.734-3.08-1.28c-0.974-0.547-1.8-1.206-2.479-1.98c-0.681-0.773-1.021-1.64-1.021-2.6
	c0-0.24,0.133-0.36,0.4-0.36c0.133,0,0.326,0.06,0.58,0.18c0.253,0.12,0.52,0.26,0.8,0.42c0.28,0.16,0.546,0.32,0.8,0.48
	c0.253,0.16,0.46,0.28,0.62,0.36c0.106,0.054,0.326,0.127,0.66,0.22c0.333,0.094,0.68,0.187,1.04,0.28
	c0.359,0.094,0.7,0.174,1.02,0.24c0.32,0.067,0.533,0.1,0.641,0.1H86.68c0.106,0,0.221,0.014,0.34,0.04
	c0.12,0.027,0.181,0.107,0.181,0.24c0,0.08-0.021,0.154-0.061,0.22c-0.04,0.067-0.087,0.127-0.14,0.18
	c-0.4,0.614-0.72,1.253-0.96,1.92C85.8,45.546,85.493,46.186,85.12,46.8z M86,14.24l-0.12,0.2c-0.187,0.027-0.507,0.1-0.96,0.22
	c-0.454,0.12-0.967,0.253-1.54,0.4c-0.573,0.147-1.16,0.313-1.76,0.5c-0.601,0.187-1.154,0.367-1.66,0.54
	c-0.507,0.174-0.92,0.34-1.24,0.5C78.4,16.76,78.24,16.894,78.24,17c0,0.294,0.093,0.62,0.279,0.98s0.28,0.727,0.28,1.1
	c0,0.134-0.047,0.287-0.14,0.46c-0.094,0.174-0.194,0.347-0.3,0.52c-0.107,0.174-0.188,0.347-0.24,0.52
	c-0.054,0.174-0.04,0.3,0.04,0.38l0.28,0.12h2.239c0.08,0,0.221-0.1,0.42-0.3c0.2-0.2,0.406-0.433,0.62-0.7
	c0.214-0.266,0.42-0.526,0.62-0.78c0.2-0.253,0.326-0.42,0.38-0.5l0.24-0.12c0.053-0.026,0.293,0.114,0.72,0.42
	c0.427,0.307,0.894,0.66,1.4,1.06c0.506,0.4,0.973,0.793,1.4,1.18c0.426,0.387,0.68,0.66,0.76,0.82
	c-0.027,0.134-0.101,0.24-0.221,0.32c-0.119,0.08-0.246,0.147-0.38,0.2c-0.134,0.054-0.253,0.12-0.359,0.2
	c-0.107,0.08-0.16,0.187-0.16,0.32v14.4c0,0.534-0.167,1.014-0.5,1.44c-0.334,0.427-0.74,0.794-1.22,1.1
	c-0.48,0.307-1,0.54-1.561,0.7c-0.56,0.16-1.066,0.24-1.52,0.24c-0.214,0-0.348-0.133-0.4-0.4c-0.106-0.426-0.167-0.767-0.18-1.02
	c-0.014-0.253-0.034-0.5-0.061-0.74c-0.026-0.24-0.08-0.493-0.16-0.76c-0.079-0.267-0.239-0.626-0.479-1.08
	c-0.027-0.053-0.054-0.113-0.08-0.18c-0.026-0.066-0.04-0.126-0.04-0.18c0-0.133,0.066-0.22,0.2-0.26
	c0.133-0.04,0.28-0.093,0.439-0.16c0.16-0.066,0.307-0.153,0.44-0.26c0.133-0.106,0.2-0.293,0.2-0.56v-13.2
	c0-0.266-0.134-0.4-0.4-0.4h-3.28c-0.267,0-0.399,0.134-0.399,0.4c0,1.68,0.013,3.36,0.04,5.04c0.026,1.68,0.04,3.36,0.04,5.04
	c0,0.187-0.014,0.654-0.04,1.4c-0.027,0.747-0.054,1.54-0.08,2.38c-0.027,0.84-0.061,1.6-0.1,2.28c-0.04,0.68-0.074,1.047-0.101,1.1
	c-0.106,0.16-0.307,0.307-0.6,0.44c-0.294,0.134-0.62,0.254-0.98,0.36c-0.359,0.107-0.707,0.187-1.04,0.24
	c-0.334,0.054-0.594,0.08-0.779,0.08c-0.214,0-0.367-0.02-0.461-0.06s-0.206-0.14-0.34-0.3c-0.026-0.026-0.054-0.24-0.08-0.64
	s-0.047-0.9-0.06-1.5c-0.014-0.6-0.034-1.253-0.06-1.96c-0.027-0.707-0.047-1.38-0.061-2.02c-0.014-0.64-0.02-1.207-0.02-1.7
	c0-0.493,0-0.82,0-0.98c0-1.546,0.013-3.08,0.04-4.6c0.025-1.52,0.04-3.053,0.04-4.6c0-0.266-0.134-0.4-0.4-0.4h-2.84
	c-0.268,0-0.4,0.134-0.4,0.4c0,1.36,0.021,2.714,0.061,4.06c0.04,1.347,0.06,2.7,0.06,4.06c0,0.187-0.007,0.52-0.02,1
	c-0.015,0.48-0.027,1.047-0.04,1.7c-0.014,0.654-0.027,1.333-0.04,2.04c-0.014,0.707-0.034,1.36-0.061,1.96s-0.06,1.107-0.1,1.52
	c-0.04,0.414-0.074,0.647-0.101,0.7c-0.134,0.16-0.427,0.36-0.88,0.6c-0.453,0.24-0.934,0.447-1.439,0.62
	c-0.507,0.174-0.974,0.267-1.4,0.28c-0.427,0.014-0.68-0.126-0.76-0.42c-0.054-0.16-0.074-0.326-0.061-0.5
	c0.014-0.173,0.021-0.34,0.021-0.5c0-2.56-0.034-5.1-0.1-7.62c-0.067-2.52-0.101-5.06-0.101-7.62v-4.6c0-0.08,0.026-0.173,0.08-0.28
	c0.053-0.106,0.133-0.16,0.24-0.16c0.16,0,0.466,0.1,0.92,0.3c0.453,0.2,0.933,0.427,1.439,0.68s0.986,0.48,1.44,0.68
	c0.453,0.2,0.76,0.3,0.92,0.3h4.561c0.239,0,0.359-0.133,0.359-0.4c0-0.586-0.24-1.1-0.72-1.54c-0.48-0.44-1.007-0.833-1.58-1.18
	c-0.574-0.346-1.1-0.653-1.58-0.92c-0.479-0.266-0.72-0.533-0.72-0.8c0-0.08,0.066-0.14,0.2-0.18c0.133-0.04,0.286-0.066,0.46-0.08
	c0.173-0.013,0.346-0.013,0.52,0c0.173,0.014,0.286,0.02,0.34,0.02c0.88,0,1.76,0.094,2.641,0.28c0.88,0.187,1.76,0.28,2.64,0.28
	c0.106,0,0.326-0.126,0.66-0.38c0.333-0.253,0.673-0.546,1.02-0.88c0.347-0.333,0.66-0.653,0.94-0.96
	c0.28-0.306,0.42-0.513,0.42-0.62c0-0.267-0.094-0.4-0.28-0.4H64.32c-0.134,0-0.2-0.066-0.2-0.2c0-0.133,0.066-0.2,0.2-0.2H78.68
	c0.134,0,0.366-0.14,0.7-0.42c0.333-0.28,0.68-0.58,1.04-0.9c0.36-0.32,0.693-0.62,1-0.9c0.307-0.28,0.5-0.42,0.58-0.42
	s0.307,0.174,0.68,0.52c0.373,0.347,0.78,0.74,1.221,1.18c0.439,0.44,0.853,0.867,1.239,1.28c0.387,0.414,0.646,0.674,0.78,0.78
	L86,14.24z M69.88,26.92h1.601l0.119,0.12L71.48,27.2H69.88l-0.16-0.16L69.88,26.92z M69.88,32.52h1.601l0.119,0.12L71.48,32.8
	H69.88l-0.16-0.16L69.88,32.52z M78.16,27.08l-0.08-0.12c0.026-0.026,0.153-0.04,0.38-0.04s0.474,0,0.74,0c0.266,0,0.506,0,0.72,0
	c0.213,0,0.347,0.014,0.4,0.04l-0.08,0.12l-0.28,0.12h-1.52L78.16,27.08z M78.16,32.68l-0.08-0.12c0.026-0.026,0.153-0.04,0.38-0.04
	s0.474,0,0.74,0c0.266,0,0.506,0,0.72,0c0.213,0,0.347,0.014,0.4,0.04l-0.08,0.12l-0.28,0.12h-1.52L78.16,32.68z"/>
<path id="XMLID_4_" style="fill:#900000;" d="M48,66.52c-2.693,0.134-5.367,0.221-8.021,0.26c-2.654,0.04-5.327,0.061-8.02,0.061
	c-0.347,0-1.08,0-2.2,0c-1.12,0-2.42,0-3.9,0s-3.034,0-4.66,0c-1.627,0-3.134,0-4.52,0c-1.387,0-2.534-0.014-3.44-0.04
	c-0.907-0.026-1.387-0.053-1.44-0.08c-0.08-0.053-0.146-0.14-0.2-0.26c-0.054-0.12,0.026-0.181,0.24-0.181h14.84
	c0.266,0,0.4-0.133,0.4-0.399V52.52c0-0.266,0.133-0.399,0.4-0.399c0.56,0,1.113,0.033,1.66,0.1c0.546,0.067,1.1,0.127,1.66,0.18
	c0.374,0.054,0.753,0.087,1.14,0.101c0.386,0.014,0.766,0.073,1.14,0.18c0.053,0.027,0.12,0.054,0.2,0.08
	c0.08,0.027,0.12,0.066,0.12,0.12s-0.054,0.113-0.16,0.18c-0.107,0.067-0.22,0.147-0.34,0.24c-0.12,0.094-0.234,0.187-0.34,0.28
	c-0.107,0.094-0.16,0.193-0.16,0.3V66c0,0.16,0.106,0.247,0.32,0.26c0.213,0.014,0.373,0.02,0.48,0.02c0.506,0,1-0.013,1.48-0.039
	s0.973-0.054,1.48-0.08l5.12-0.24c0.48-0.453,0.886-0.946,1.22-1.48c0.333-0.533,0.726-1.026,1.18-1.479l0.2-0.08
	c0.16,0.054,0.426,0.227,0.8,0.52c0.373,0.294,0.766,0.62,1.18,0.98s0.82,0.714,1.221,1.06c0.4,0.348,0.719,0.601,0.959,0.761
	l0.08,0.199L48,66.52z M13.799,56.84c-0.054-0.133-0.027-0.24,0.08-0.32c0.106-0.08,0.2-0.12,0.28-0.12h11.48
	c0.16,0,0.32,0.08,0.48,0.24c-0.24,0.054-0.487,0.074-0.74,0.061s-0.5-0.021-0.74-0.021l-2.88,0.08
	c-1.307,0.054-2.613,0.094-3.92,0.12s-2.614,0.04-3.92,0.04L13.799,56.84z M15.399,61.646c-0.054-0.124-0.027-0.223,0.08-0.296
	c0.106-0.074,0.2-0.11,0.28-0.11h9.88c0.16,0,0.32,0.066,0.48,0.199c-0.16,0.027-0.394,0.047-0.7,0.061
	c-0.307,0.014-0.62,0.02-0.94,0.02s-0.627,0.007-0.92,0.021c-0.294,0.014-0.534,0.02-0.72,0.02c-1.227,0.027-2.447,0.061-3.66,0.101
	c-1.214,0.04-2.434,0.06-3.66,0.06L15.399,61.646z M38.52,67.96c0.106,0.026,0.386,0.207,0.84,0.54c0.453,0.334,0.933,0.7,1.44,1.1
	c0.506,0.4,0.966,0.78,1.38,1.141c0.413,0.359,0.646,0.58,0.7,0.66c0.08,0.187,0.073,0.326-0.02,0.42
	c-0.094,0.094-0.213,0.18-0.36,0.26c-0.147,0.08-0.287,0.16-0.42,0.24c-0.134,0.08-0.2,0.199-0.2,0.359V86
	c0,0.586-0.22,1.113-0.66,1.58c-0.44,0.466-0.967,0.86-1.58,1.18c-0.614,0.32-1.26,0.561-1.94,0.721
	c-0.68,0.159-1.26,0.239-1.74,0.239c-0.134,0-0.22-0.033-0.26-0.1c-0.04-0.067-0.087-0.154-0.14-0.26
	c-0.134-0.348-0.24-0.688-0.32-1.021c-0.08-0.334-0.227-0.66-0.44-0.979c-0.106-0.16-0.273-0.348-0.5-0.561
	c-0.227-0.214-0.447-0.434-0.66-0.66c-0.214-0.226-0.4-0.446-0.56-0.659c-0.16-0.214-0.24-0.427-0.24-0.641
	c0-0.16,0.153-0.26,0.46-0.3s0.646-0.053,1.02-0.04c0.374,0.014,0.747,0.034,1.12,0.06c0.373,0.027,0.626,0,0.76-0.079
	c0.106-0.16,0.213-0.381,0.32-0.66c0.106-0.28,0.16-0.526,0.16-0.74V71.72c0-0.266-0.134-0.399-0.4-0.399h-3.76
	c-0.267,0-0.4,0.134-0.4,0.399v6.16c0,0.267,0.133,0.4,0.4,0.4c0.16,0,0.393,0,0.7,0c0.306,0,0.633,0,0.98,0
	c0.346,0,0.66,0.007,0.94,0.02c0.28,0.014,0.473,0.034,0.58,0.061l0.08,0.12c-0.08,0.026-0.247,0.039-0.5,0.039s-0.527,0-0.82,0
	c-0.294,0-0.574,0-0.84,0c-0.267,0-0.454,0-0.56,0h-9.04L24,78.48V78.4l0.28-0.12c0.106,0,0.327,0.014,0.66,0.04
	c0.333,0.026,0.68,0.04,1.04,0.04s0.673-0.033,0.94-0.101c0.266-0.066,0.4-0.193,0.4-0.38v-6.16c0-0.266-0.134-0.399-0.4-0.399
	h-3.44c-0.267,0-0.4,0.134-0.4,0.399v16.16c0,0.373-0.167,0.66-0.5,0.86c-0.334,0.2-0.727,0.359-1.18,0.479
	c-0.454,0.12-0.914,0.193-1.38,0.221c-0.467,0.025-0.82,0.04-1.06,0.04c-0.214,0-0.354-0.008-0.42-0.021
	c-0.067-0.014-0.154-0.127-0.26-0.34c-0.08-0.214-0.106-0.534-0.08-0.96c0.026-0.427,0.04-0.76,0.04-1c0-3.066-0.04-6.133-0.12-9.2
	c-0.08-3.066-0.12-6.133-0.12-9.2c0-0.24,0.133-0.36,0.4-0.36c0.4,0,0.826,0.114,1.28,0.341c0.453,0.227,0.913,0.467,1.38,0.72
	c0.466,0.254,0.92,0.494,1.36,0.72c0.44,0.228,0.86,0.34,1.26,0.34h12.2c0.32,0,0.593-0.112,0.82-0.34
	c0.226-0.226,0.44-0.486,0.64-0.779c0.2-0.294,0.393-0.581,0.58-0.86C38.106,68.26,38.306,68.066,38.52,67.96z M45.879,56.68
	c-0.773,0-1.56,0.04-2.359,0.12s-1.587,0.12-2.36,0.12c-0.187,0-0.494,0-0.92,0c-0.427,0-0.914-0.007-1.46-0.021
	c-0.547-0.013-1.12-0.026-1.72-0.04c-0.6-0.013-1.16-0.033-1.68-0.06s-0.967-0.053-1.34-0.08c-0.374-0.026-0.6-0.066-0.68-0.12
	c0.08-0.187,0.373-0.306,0.88-0.359c0.506-0.054,1.073-0.08,1.7-0.08c0.626,0,1.226,0.02,1.8,0.06c0.573,0.04,0.966,0.06,1.18,0.06
	l0.28-0.119c0.08-0.106,0.246-0.326,0.5-0.66c0.253-0.333,0.526-0.681,0.82-1.04c0.293-0.36,0.56-0.687,0.8-0.98
	c0.24-0.293,0.386-0.439,0.44-0.439c0.08,0,0.327,0.16,0.74,0.479c0.413,0.32,0.866,0.688,1.36,1.101
	c0.493,0.413,0.953,0.807,1.381,1.18c0.426,0.374,0.68,0.613,0.76,0.72L45.879,56.68z M38.12,61.12c0.133,0,0.32-0.146,0.56-0.44
	c0.24-0.293,0.486-0.62,0.74-0.979c0.253-0.36,0.486-0.7,0.7-1.021c0.213-0.32,0.373-0.506,0.48-0.56
	c0.133-0.054,0.233-0.066,0.3-0.04c0.066,0.026,0.153,0.066,0.26,0.12c0.106,0.054,0.36,0.239,0.76,0.56s0.806,0.66,1.22,1.02
	c0.413,0.36,0.786,0.705,1.12,1.033c0.333,0.328,0.5,0.529,0.5,0.603c0,0.123-0.134,0.245-0.4,0.364
	c-0.267,0.12-0.454,0.194-0.56,0.221c-0.187,0.026-0.374-0.033-0.56-0.181c-0.187-0.146-0.387-0.22-0.6-0.22h-9.08
	c-0.107,0-0.174-0.035-0.2-0.108c0.026-0.047,0.06-0.089,0.1-0.125s0.086-0.078,0.14-0.126l0.28-0.12H38.12z"/>
<path id="XMLID_27_" style="fill:#900000;" d="M51.48,79.48l-0.08-0.12l0.08-0.2c0.079-0.026,0.406-0.047,0.979-0.061
	c0.573-0.013,1.206-0.02,1.9-0.02c0.692,0,1.353,0,1.979,0c0.626,0,1.047,0,1.26,0c0.267,0,0.4-0.133,0.4-0.4v-11.6
	c0-0.293,0.04-0.514,0.12-0.66s0.293-0.22,0.64-0.22c0.187,0,0.387,0.04,0.601,0.119c1.413,0.534,2.753,0.98,4.02,1.341
	c1.267,0.359,2.66,0.54,4.18,0.54c0.054,0,0.174-0.007,0.36-0.021c0.187-0.013,0.373-0.02,0.561-0.02c0.186,0,0.353,0.007,0.5,0.02
	c0.146,0.014,0.22,0.061,0.22,0.14c0,0.134-0.074,0.214-0.22,0.24c-0.147,0.027-0.261,0.04-0.341,0.04
	c-0.187,0.027-0.554,0.014-1.1-0.04c-0.547-0.053-1.114-0.093-1.7-0.12c-0.587-0.026-1.106-0.013-1.56,0.04
	c-0.454,0.054-0.681,0.2-0.681,0.44v9.84c0,0.268,0.134,0.4,0.4,0.4c0.213,0,0.586-0.014,1.12-0.04
	c0.533-0.026,1.086-0.046,1.66-0.061c0.573-0.013,1.093-0.006,1.56,0.021s0.753,0.106,0.86,0.24c-0.054,0.08-0.174,0.146-0.36,0.199
	c-0.187,0.055-0.334,0.08-0.439,0.08H51.76L51.48,79.48z M51.88,68.8c0.054-0.187,0.24-0.546,0.561-1.08
	c0.319-0.533,0.673-1.106,1.06-1.72s0.767-1.206,1.14-1.78c0.373-0.573,0.641-0.993,0.801-1.26c0.692-1.2,1.326-2.4,1.899-3.601
	c0.573-1.199,1.126-2.426,1.66-3.68c0.187-0.426,0.354-0.846,0.5-1.26c0.146-0.413,0.3-0.833,0.46-1.26
	c0.053-0.187,0.113-0.381,0.18-0.58c0.066-0.2,0.141-0.38,0.221-0.54c0.105-0.16,0.266-0.24,0.479-0.24
	c0.213,0,0.666,0.113,1.36,0.34c0.693,0.227,1.406,0.494,2.14,0.8c0.733,0.308,1.394,0.607,1.98,0.9
	c0.586,0.294,0.88,0.52,0.88,0.68c0,0.107-0.181,0.307-0.54,0.601c-0.36,0.293-0.747,0.634-1.16,1.02
	c-0.414,0.387-0.8,0.8-1.16,1.24c-0.359,0.439-0.54,0.847-0.54,1.22c0,0.107,0,0.227,0,0.36s-0.04,0.24-0.12,0.319L58.8,64.12
	c-0.24,0.239-0.514,0.439-0.819,0.6c-0.308,0.16-0.607,0.347-0.9,0.56c-0.854,0.641-1.667,1.294-2.44,1.961
	c-0.773,0.666-1.653,1.213-2.64,1.64L51.88,68.8z M79.72,58.56c0.106-0.106,0.307-0.353,0.601-0.74
	c0.293-0.386,0.6-0.786,0.92-1.199c0.319-0.413,0.62-0.78,0.899-1.101c0.28-0.319,0.446-0.479,0.5-0.479
	c0.106,0,0.301,0.094,0.58,0.279c0.28,0.188,0.606,0.421,0.98,0.7c0.373,0.28,0.76,0.587,1.16,0.92
	c0.399,0.334,0.766,0.647,1.1,0.94c0.333,0.294,0.613,0.547,0.84,0.76c0.227,0.214,0.34,0.334,0.34,0.36
	c0,0.134-0.054,0.2-0.159,0.2H76.32c-0.268,0-0.4,0.134-0.4,0.399c0,3.147-0.007,6.273-0.02,9.38
	c-0.014,3.107-0.021,6.234-0.021,9.381c0,0.159,0.033,0.319,0.101,0.479c0.065,0.16,0.1,0.32,0.1,0.48s-0.034,0.319-0.1,0.479
	c-0.067,0.16-0.101,0.32-0.101,0.48v7.84c0,0.346-0.227,0.613-0.68,0.8c-0.454,0.187-0.974,0.326-1.561,0.42
	s-1.167,0.153-1.739,0.18c-0.574,0.026-0.98,0.04-1.221,0.04c-0.267,0-0.399-0.134-0.399-0.399V59.6c0-0.266-0.134-0.399-0.4-0.399
	c-0.187,0-0.526,0.007-1.02,0.02c-0.494,0.014-1.007,0.021-1.54,0.021c-0.534,0-1.021-0.007-1.46-0.021
	c-0.44-0.013-0.714-0.046-0.82-0.1c0.053-0.08,0.213-0.174,0.479-0.28s0.453-0.16,0.561-0.16h13.36L79.72,58.56z M76.92,68.24
	l0.12-0.12c0.479,0.054,0.94-0.04,1.38-0.28c0.44-0.24,0.847-0.546,1.22-0.92c0.373-0.373,0.707-0.78,1-1.22
	c0.294-0.44,0.547-0.847,0.761-1.221l0.199-0.08c0.134,0.027,0.434,0.214,0.9,0.561c0.466,0.347,0.96,0.727,1.48,1.14
	c0.52,0.414,1,0.82,1.439,1.22c0.44,0.4,0.7,0.667,0.78,0.801l-0.08,0.159l-0.28,0.12h-8.76L76.92,68.24z M83.44,75.4
	c0.186,0.159,0.532,0.413,1.04,0.76c0.506,0.347,1.032,0.72,1.579,1.12c0.547,0.399,1.033,0.779,1.46,1.14s0.641,0.62,0.641,0.78
	c0,0.134-0.114,0.233-0.34,0.3c-0.228,0.066-0.395,0.1-0.5,0.1H77.72c-0.054,0-0.193-0.033-0.42-0.1s-0.34-0.126-0.34-0.18
	c0-0.08,0.12-0.127,0.36-0.141c0.239-0.013,0.386-0.02,0.439-0.02c0.4,0,0.807,0.007,1.221,0.02c0.413,0.014,0.793-0.113,1.14-0.38
	c0.267-0.187,0.513-0.46,0.74-0.819c0.226-0.36,0.46-0.721,0.699-1.08c0.24-0.36,0.493-0.687,0.761-0.98
	c0.266-0.293,0.56-0.493,0.88-0.6L83.44,75.4z"/>
</svg>
